<?xml version="1.0" standalone="no"?>
<!DOCTYPE svg PUBLIC "-//W3C//DTD SVG 20010904//EN"
 "http://www.w3.org/TR/2001/REC-SVG-20010904/DTD/svg10.dtd">
<svg version="1.0" xmlns="http://www.w3.org/2000/svg"
 width="1024.000000pt" height="1024.000000pt" viewBox="0 0 1024.000000 1024.000000"
 preserveAspectRatio="xMidYMid meet">
<metadata>
Created by potrace 1.16, written by Peter Selinger 2001-2019
</metadata>
<g transform="translate(0.000000,1024.000000) scale(0.100000,-0.100000)"
fill="#060b47" stroke="none">
<path d="M6257 8760 c-571 -72 -1055 -411 -1305 -915 -116 -233 -169 -453
-179 -735 -6 -189 7 -336 35 -383 58 -101 234 -100 289 1 11 20 26 73 33 117
36 236 140 437 308 596 141 134 313 223 512 266 66 14 127 18 275 17 171 0
201 -3 298 -27 305 -76 533 -211 773 -459 265 -274 414 -613 431 -978 15 -341
-87 -621 -303 -835 -156 -154 -348 -251 -578 -290 -101 -17 -141 -37 -173 -84
-46 -68 -38 -159 17 -211 56 -53 122 -65 355 -64 158 0 235 4 310 18 389 70
740 267 992 555 292 334 439 759 419 1211 -14 327 -81 596 -212 865 -230 469
-628 864 -1114 1106 -314 156 -602 228 -930 234 -102 2 -216 0 -253 -5z"/>
<path d="M6384 7016 c-34 -8 -81 -24 -105 -36 -31 -15 -252 -230 -724 -700
l-680 -679 -95 61 c-52 33 -161 92 -241 132 -871 433 -1855 328 -2471 -263
-357 -342 -556 -774 -593 -1291 -6 -76 -4 -89 17 -129 39 -76 108 -108 190
-89 72 16 103 56 144 186 140 451 496 772 967 874 84 18 133 22 282 22 156 -1
197 -4 306 -27 384 -81 734 -274 1023 -564 285 -288 455 -611 521 -988 25
-140 25 -419 2 -538 -93 -464 -407 -833 -843 -990 -150 -54 -264 -72 -454 -72
-100 0 -204 6 -243 13 -88 17 -133 5 -180 -47 -64 -71 -60 -180 7 -239 35 -30
149 -71 316 -113 325 -81 670 -90 985 -27 220 43 483 152 665 273 854 570
1122 1703 640 2703 -61 126 -155 293 -197 348 -12 17 -23 35 -23 40 0 5 299
308 665 674 366 366 679 686 695 711 41 62 60 131 60 214 0 138 -53 256 -165
370 -138 142 -315 206 -471 171z"/>
<path d="M3056 4580 c-304 -48 -567 -227 -722 -490 -24 -41 -44 -78 -44 -83 0
-4 15 3 33 17 55 42 208 113 298 139 230 67 472 60 707 -19 223 -74 454 -246
575 -429 54 -81 29 -183 -58 -232 -79 -45 -161 -23 -220 57 -93 126 -249 241
-398 290 -200 67 -410 60 -599 -20 -173 -74 -310 -203 -396 -376 -101 -201
-90 -468 31 -709 97 -195 267 -365 462 -461 178 -88 321 -109 550 -80 72 9
195 15 275 15 160 -2 233 10 369 60 425 155 698 582 666 1041 -13 198 -49 338
-127 499 -180 368 -565 666 -984 761 -103 24 -327 34 -418 20z"/>
<path d="M6300 3780 c0 -23 55 -112 64 -103 3 3 6 2 6 -3 0 -5 18 -8 39 -6 21
2 48 -1 60 -7 17 -10 19 -15 9 -30 -9 -15 -16 -17 -34 -9 -30 14 -60 -6 -41
-27 7 -7 15 -11 20 -8 4 2 7 -1 7 -6 0 -6 6 -11 14 -11 20 0 56 -48 56 -74 0
-12 -8 -33 -17 -46 -16 -23 -16 -24 0 -11 14 11 18 11 23 -3 5 -12 10 -13 25
-5 15 8 17 14 9 29 -5 10 -10 37 -10 60 0 37 -2 41 -20 35 -16 -5 -20 -2 -20
19 0 19 5 26 20 26 13 0 20 7 20 20 0 15 7 20 25 20 18 0 25 -5 25 -19 0 -14
8 -21 27 -23 17 -2 27 -10 29 -24 3 -18 -1 -20 -27 -16 -30 4 -30 4 -27 -39 2
-26 8 -45 16 -45 6 -1 16 -2 20 -3 5 0 14 -12 20 -26 10 -22 9 -25 -9 -25 -19
0 -19 -1 -4 -17 16 -16 18 -15 35 7 17 22 17 24 -1 44 -28 30 -25 91 6 121 13
14 35 25 49 25 24 0 25 2 28 86 2 68 0 88 -13 100 -12 11 -57 14 -222 14 -199
0 -207 -1 -207 -20z"/>
<path d="M7648 3773 c-2 -17 -9 -28 -18 -28 -25 0 -68 -94 -69 -148 -1 -49 23
-117 41 -117 5 0 14 14 20 31 7 20 16 29 27 27 21 -5 15 -36 -11 -58 -20 -16
-20 -17 23 -67 55 -62 91 -88 160 -113 64 -24 60 -23 53 -5 -4 10 0 15 15 15
12 0 21 -6 21 -14 0 -25 33 -29 52 -7 9 12 27 21 40 20 12 0 17 -3 11 -6 -25
-10 -12 -23 22 -23 19 0 35 5 35 10 0 6 8 10 18 10 14 0 15 2 2 10 -10 6 -11
10 -2 10 7 0 12 15 12 39 0 34 3 39 20 36 40 -8 61 37 41 87 -5 13 -17 50 -27
83 -10 33 -22 64 -26 70 -4 5 -8 20 -8 32 0 40 -19 51 -77 46 -36 -4 -53 -2
-53 6 0 6 -15 11 -35 11 -19 0 -35 5 -35 10 0 6 -9 10 -20 10 -11 0 -20 -4
-20 -10 0 -5 -10 -10 -22 -10 -28 -1 -68 -32 -68 -54 0 -8 -11 -23 -25 -32
-13 -9 -27 -25 -31 -36 -4 -12 -11 -17 -21 -13 -13 4 -13 3 -4 -9 9 -11 8 -15
-5 -20 -9 -4 -19 -4 -22 -1 -3 3 -5 57 -3 120 1 63 0 115 -3 115 -3 0 -6 -12
-8 -27z"/>
<path d="M9160 3761 c0 -48 -8 -54 -43 -36 -24 12 -28 12 -36 -3 -10 -19 -5
-96 9 -152 5 -19 14 -57 21 -83 6 -26 14 -45 16 -43 3 3 23 -31 45 -75 l40
-80 47 6 c25 4 70 11 100 16 30 5 57 7 59 4 3 -3 0 -5 -7 -5 -8 0 -7 -6 4 -17
11 -10 19 -13 23 -6 4 6 25 9 46 8 46 -4 85 20 86 52 0 30 21 73 35 73 6 0 17
11 23 25 7 15 8 25 2 25 -6 0 -10 7 -10 15 0 8 9 15 20 15 50 0 -9 145 -98
242 l-54 58 -164 0 -164 0 0 -39z"/>
<path d="M6120 3471 l0 -193 57 -55 c57 -56 88 -74 110 -66 9 4 7 15 -7 44
-24 46 -27 99 -6 99 8 0 18 5 22 12 4 6 3 8 -3 5 -11 -7 -25 28 -29 73 -4 37
-16 84 -24 90 -12 9 -40 72 -40 90 0 20 -27 46 -37 36 -4 -4 -15 8 -25 26 -17
32 -17 30 -18 -161z"/>
<path d="M6696 3541 c-6 -9 0 -51 9 -59 3 -3 5 2 5 10 0 9 7 21 15 28 8 7 15
16 15 21 0 12 -37 12 -44 0z"/>
<path d="M6570 3421 c0 -6 4 -13 10 -16 6 -3 7 1 4 9 -7 18 -14 21 -14 7z"/>
<path d="M6695 3420 c4 -6 11 -8 16 -5 14 9 11 15 -7 15 -8 0 -12 -5 -9 -10z"/>
<path d="M6735 3420 c-3 -6 1 -7 9 -4 18 7 21 14 7 14 -6 0 -13 -4 -16 -10z"/>
<path d="M6673 3313 c-21 -8 -15 -33 7 -33 13 0 20 7 20 20 0 20 -5 23 -27 13z"/>
<path d="M7593 3313 c-19 -7 -16 -33 5 -34 9 0 43 0 75 1 56 1 58 0 71 -30 10
-26 14 -29 20 -15 11 29 7 34 -44 60 -46 23 -97 31 -127 18z"/>
<path d="M8116 3308 c3 -5 10 -6 15 -3 13 9 11 12 -6 12 -8 0 -12 -4 -9 -9z"/>
<path d="M6617 3249 c4 -13 8 -18 11 -10 2 7 -1 18 -6 23 -8 8 -9 4 -5 -13z"/>
<path d="M7581 3225 c1 -23 3 -25 6 -7 7 37 23 25 23 -18 0 -22 -3 -39 -7 -39
-37 6 -42 -1 -36 -58 3 -35 12 -63 21 -70 10 -8 46 -13 93 -13 77 0 77 0 99
34 24 40 37 125 23 150 -8 15 -13 10 -27 -28 -15 -40 -21 -46 -47 -46 -33 0
-39 19 -9 27 24 6 24 3 4 53 -13 32 -21 39 -40 38 -21 -2 -24 -7 -24 -40 0
-31 -4 -38 -20 -38 -16 0 -20 7 -21 38 -1 20 -1 40 0 44 0 4 -8 6 -19 5 -16
-1 -20 -8 -19 -32z"/>
<path d="M6675 3210 c-3 -5 -1 -10 4 -10 6 0 11 5 11 10 0 6 -2 10 -4 10 -3 0
-8 -4 -11 -10z"/>
<path d="M6750 3189 c0 -5 5 -7 10 -4 6 3 10 8 10 11 0 2 -4 4 -10 4 -5 0 -10
-5 -10 -11z"/>
<path d="M6683 3163 c10 -3 17 -14 17 -28 0 -35 23 -49 44 -26 30 33 17 54
-34 57 -25 1 -37 0 -27 -3z"/>
</g>
</svg>
