<?xml version="1.0" standalone="no"?>
<!DOCTYPE svg PUBLIC "-//W3C//DTD SVG 20010904//EN"
 "http://www.w3.org/TR/2001/REC-SVG-20010904/DTD/svg10.dtd">
<svg version="1.0" xmlns="http://www.w3.org/2000/svg"
 width="7071.000000pt" height="7071.000000pt" viewBox="0 0 7071.000000 7071.000000"
 preserveAspectRatio="xMidYMid meet">
<metadata>
Created by potrace 1.16, written by Peter Selinger 2001-2019
</metadata>
<g transform="translate(0.000000,7071.000000) scale(0.100000,-0.100000)"
fill="#060b47" stroke="none">
<path d="M43995 60550 c-561 -31 -1180 -106 -1696 -205 -1898 -368 -3623
-1176 -5119 -2399 -487 -399 -992 -888 -1391 -1346 -1451 -1670 -2389 -3756
-2724 -6057 -52 -359 -93 -773 -117 -1168 -16 -273 -16 -1186 0 -1460 25 -411
77 -939 108 -1100 94 -470 458 -813 944 -890 472 -75 943 116 1184 478 116
174 154 292 201 629 83 587 184 1028 349 1523 522 1563 1512 2826 2886 3682
1714 1067 3925 1417 6140 973 1765 -354 3404 -1178 4805 -2415 173 -153 658
-624 886 -860 746 -774 1341 -1619 1833 -2605 624 -1251 983 -2540 1086 -3905
18 -237 24 -780 11 -1040 -72 -1461 -486 -2761 -1233 -3873 -721 -1071 -1752
-1942 -2937 -2479 -691 -313 -1454 -528 -2196 -618 -246 -30 -354 -59 -500
-133 -156 -79 -310 -210 -419 -356 -59 -79 -129 -213 -160 -308 -102 -303 -81
-649 54 -924 175 -356 533 -568 1120 -663 274 -44 493 -58 1205 -72 989 -20
1588 13 2355 132 2002 308 3888 1135 5470 2398 765 611 1470 1338 2061 2126
1284 1712 2084 3766 2294 5895 65 659 77 1478 30 2065 -8 105 -24 314 -35 465
-130 1769 -564 3421 -1323 5040 -847 1807 -2079 3490 -3607 4924 -2317 2176
-5179 3681 -8140 4280 -610 123 -1180 200 -1915 257 -173 13 -1306 20 -1510 9z"/>
<path d="M44500 48509 c-585 -30 -1120 -239 -1605 -628 -92 -73 -1195 -1171
-4675 -4653 l-4555 -4558 -125 86 c-472 323 -1147 728 -1729 1036 -2150 1139
-4512 1834 -6821 2007 -522 40 -674 45 -1225 45 -553 0 -713 -6 -1220 -45
-2670 -206 -5172 -1135 -7195 -2672 -1034 -786 -1956 -1734 -2710 -2788 -1483
-2071 -2325 -4548 -2472 -7267 -13 -253 -6 -359 37 -507 106 -364 393 -665
750 -784 539 -180 1128 44 1403 534 58 104 85 178 151 421 374 1368 984 2517
1880 3539 143 163 584 603 761 760 1980 1749 4538 2503 7340 2164 2369 -286
4780 -1351 6807 -3006 2009 -1640 3504 -3750 4258 -6008 119 -357 156 -481
255 -860 147 -565 261 -1286 305 -1925 9 -124 20 -272 25 -330 54 -616 32
-1373 -60 -2050 -401 -2934 -2188 -5440 -4829 -6774 -1187 -599 -2431 -919
-3831 -986 -650 -31 -1380 18 -2105 141 -346 59 -516 56 -720 -13 -455 -155
-775 -633 -775 -1159 0 -409 193 -756 536 -962 92 -56 182 -91 504 -199 1562
-525 3048 -817 4625 -910 281 -16 1316 -16 1585 0 599 37 1103 93 1625 182
2040 346 3939 1140 5582 2336 1540 1121 2828 2575 3772 4262 993 1775 1593
3772 1750 5829 38 488 45 669 45 1173 0 506 -7 686 -45 1180 -182 2411 -949
4833 -2257 7130 -224 394 -559 931 -796 1280 l-106 155 4558 4560 c2508 2508
4588 4596 4624 4640 559 685 773 1463 637 2315 -214 1347 -1357 2655 -2733
3129 -414 143 -814 202 -1226 180z"/>
<path d="M21670 31679 c-1237 -95 -2267 -423 -3240 -1033 -529 -332 -997 -732
-1511 -1291 -243 -264 -546 -676 -759 -1030 -90 -151 -360 -673 -360 -697 0
-5 28 11 63 36 991 720 2171 1183 3427 1345 390 50 490 56 1025 56 459 0 532
-3 735 -23 1039 -106 1962 -365 2865 -806 920 -449 1749 -1063 2406 -1782 228
-250 488 -574 636 -794 148 -221 224 -470 209 -690 -26 -398 -281 -767 -665
-960 -166 -84 -300 -119 -482 -127 -397 -17 -693 146 -972 535 -680 947 -1608
1640 -2712 2024 -1262 440 -2631 434 -3897 -16 -901 -320 -1721 -893 -2331
-1627 -330 -398 -627 -881 -837 -1364 -229 -527 -367 -1390 -331 -2071 49
-925 277 -1756 715 -2609 1044 -2032 3043 -3494 5108 -3734 592 -69 950 -56
1883 69 461 61 692 87 921 101 239 15 565 6 774 -22 148 -19 193 -21 440 -15
1053 22 2040 265 2974 733 704 352 1284 770 1841 1328 613 612 1093 1304 1448
2085 342 752 547 1547 619 2395 22 257 16 925 -10 1275 -54 703 -108 1065
-238 1585 -634 2539 -2560 4835 -5134 6121 -1115 557 -2259 888 -3420 990
-214 19 -1003 28 -1190 13z"/>
</g>
</svg>
